<svg width="100%" height="100%" viewBox="0 0 30 16" version="1.1" xmlns="http://www.w3.org/2000/svg">
	<circle cx="6.737" cy="12.873" r="2.794"/>
	<circle cx="23.458" cy="12.873" r="2.794"/>
	<path d="M2.909,12.875l-2.918,-0c-0,-0 0.019,-8.987 -0,-11.051c-0.009,-0.892 0.363,-1.411 1.066,-1.443c2.429,-0.109 25.689,0 25.689,0c-0,0 0.491,0.11 0.875,0.878c0.445,0.89 1.724,3.349 2.213,4.228c0.161,0.289 0.175,0.995 0.175,0.995l0,6.393l-2.77,-0l-0,-0.002c-0,-2.1 -1.705,-3.804 -3.805,-3.804c-2.099,-0 -3.804,1.704 -3.804,3.804l0,0.002l-9.112,-0l-0,-0.002c-0,-2.1 -1.705,-3.804 -3.804,-3.804c-2.1,-0 -3.805,1.704 -3.805,3.804l0,0.002Zm23.608,-10.936l-3.686,-0l0,4.164l5.736,0l-2.05,-4.164Zm-19.063,-0l-6.091,-0l0,3.911l6.091,-0l-0,-3.911Zm7.156,-0l-6.091,-0l0,3.911l6.091,-0l-0,-3.911Zm7.156,-0l-6.091,-0l0,3.911l6.091,-0l-0,-3.911Z"/>
</svg>
