<svg width="100%" height="100%" viewBox="0 0 30 16" version="1.1" xmlns="http://www.w3.org/2000/svg"><path d="M25.162,12.904l-6.052,0c-0.071,-1.527 -1.333,-2.745 -2.878,-2.745c-1.544,-0 -2.807,1.218 -2.878,2.745l-1.574,0c-0.071,-1.527 -1.333,-2.745 -2.877,-2.745c-1.287,-0 -2.377,0.844 -2.747,2.009c-0.074,0.234 -0.247,0.736 -0.247,0.736l0,1.703l-1.18,0l-0,-0.926l-2.412,-0.001l-0.002,-10.676l-2.326,0l0,-2.252l9.417,0l-0,2.622l6.018,-0l-0,-2.549l2.237,0l-0,2.549l6.493,-0l-0,-3.444l3.051,0l0,3.444l1.012,-0l-0,0.53l0.908,0l0,5.985l-0.908,0l-0,1.563l1.794,0l-0,1.452l-3.659,0l-0,2.142l-1.19,0l-0,-2.142Zm-16.654,-9.965l-5.09,-0l0,3.074l5.09,0l-0,-3.074Z"/><circle cx="8.871" cy="13.36" r="2.492"/><circle cx="16.252" cy="13.36" r="2.492"/><circle cx="23.207" cy="14.587" r="1.483"/><circle cx="28.293" cy="14.587" r="1.483"/></svg>
